<?xml version="1.0" encoding="UTF-8"?>
<svg xmlns="http://www.w3.org/2000/svg" version="1.1" viewBox="0 0 166 166">
  <!-- Generator: Adobe Illustrator 29.0.0, SVG Export Plug-In . SVG Version: 2.1.0 Build 186)  -->
  <defs>
    <style>
      .st0 {
        stroke: #000;
        stroke-linejoin: round;
        stroke-width: 1.5px;
      }
    </style>
  </defs>
  <g id="_图层_3" data-name="图层_3">
    <path class="st0" d="M104,69v-2l.5-.5h1l1.5-1.5v-1l1.5-1.5h3l.5.5v14l.5.5h3l.5.5-.5.5h-2l-1.5,1.5v6.5h1.1c0-1.1,0-2.1,0-3.2,0-1.4,1.1-2.4,2.5-2.5,1.3,0,2.5,1.2,2.5,2.5,0,1.1,0,2.1,0,3.2h4.9v-3.5l-1.5-1.5h-2l-.5-.5v-6l-.5-.5h-3l-.5-.5v-6.1c-.2-.5-.3-1-.3-1.6,0-.1,0-.2,0-.3,0-.2,0-.3,0-.5-.1-.4-.2-.8-.2-1.2v-.3c0-.7.1-1.3.4-1.9,0,0,0,0,0,0,0-.1,0-.3,0-.4,0-.2,0-.5,0-.8,0,0,0,0,0,0,0,0,.2-1.3.2-1.3,0,0,0,0,0,0,0,0,0,0,0,0,0,0,0,0,0,0,0,0,0,0,0,0,0-.1,0-.3,0-.4h-.1v-3.1l-.5-.5h-6.6c-1,1.2-2.4,1.9-3.9,1.9v4.6l-1.5,1.5h-1l-.5.5v1l-1.5,1.5h-1l-1.5,1.5v6l-.5.5h-4.1c-.6.2-1.2.3-1.9.3s-.9,0-1.3-.2c0,0,0,0,0,0-.4,0-.8,0-1.2-.1h-.6l-1,1-1-1c-.4,0-.7.1-1.1.1s-.3,0-.4,0c-.3,0-.6,0-.9,0h-.5c-.3,0-.6,0-.8,0-.5.2-1,.3-1.5.2h-.2c-.2,0-.3,0-.5,0-.2,0-.4,0-.6,0h-.3c0,0-.2,0-.2,0-.2,0-.5,0-.7,0h-.2c0,0-.1,0-.2,0-.2,0-.3,0-.5,0h-.3c-.3,0-.5,0-.8,0-.1,0-.2,0-.3,0h-.3c-.1,0-.2,0-.3,0-.2,0-.4,0-.6,0-.5,0-.9,0-1.4,0-.5,0-1,0-1.5-.2,0,0,0,0,0,0-.5,0-.9,0-1.3-.2v.5l-.5.5-1-1h-5l-1.5,1.5v28l.5.5h3l.5.5v3l.5.5h1l1,1h1l.5.5v2l.5.5h3l.5.5v3l.5.5h2l.5.5v8l-.5.5-1-1h-4l-1.5,1.5v2l-.5.5h-2l-1.5,1.5v1l-.5.5h-1l-2.5,2.5v1l-.5.5h-1l-2.5,2.5v1l-3,3v1l-.5.5h-6l-1.5,1.5v2l-.5.5h-3l-.5-.5v-2l-1.5-1.5h-5l-1,1h-1l-1-1h-5l-.5-.5v-5l-1.5-1.5h-3l-.5-.5,1-1v-8l1-1v-8l1-1v-9l2-2v-16l.5-.5h2l.5-.5v-22l-.5-.5h-2l-.5-.5v-7l.5-.5h2l.5-.5v-3l.5-.5h4l1,1,1.5-1.5v-6l.5-.5h3l1.5-1.5v-6l.5-.5h2l.5-.5v-6l.5-.5h2l1.5-1.5v-3l.5-.5h7l.5-.5v-2l.5-.5h5l1.5-1.5v-2l.5-.5h38l.5.5v2l.5.5h1l1,1h9l.5.5v2l.5.5h7l.5.5v3l1,1-.4.4c.3.6.6,1.2.8,1.8,0,0,0,0,0,.2,0,0,0,0,0,0,.5.2,1.1.3,1.5.6l.5-.5,1,1h2l.5.5v6l.5.5h2l.5-.5v-1l.5-.5.5.5v1l1.5,1.5h2l.5.5v42.5h3v-44.5l-1.5-1.5h-2l-.5-.5v-6l-.5-.5h-3l-.5-.5v-3l-.5-.5h-3l-.5-.5v-3l-.5-.5h-1l-1,1-.5-.5v-3l-1.5-1.5-1.5,1.5v1l-.5.5h-4l-.5-.5v-4l-1-1v-1l-.5-.5h-9l-1.5-1.5h0s-3,0-3,0v1l-.5.5h-47l-1.5,1.5v5l-.5.5h-6l-1.5,1.5v2l-.5.5-.5-.5v-2l-.5-.5-1.5,1.5v2l-.5.5h-2l-1.5,1.5v13l-.5.5h-1l-1-1-1,1h-3l-.5.5v2l.5.5h1l.5.5v4l-.5.5h-5l-1.5,1.5v1l-.5.5h-1l-1.5,1.5v49l-1,1v9l-1,1v8l-1,1v8l-1,1v3l1.5,1.5h2l.5.5v6l.5.5h6l1.5,1.5v2l.5.5h4l1.5-1.5-1-1v-1l.5-.5h1l.5.5v3l.5.5h8l1.5-1.5v-2l.5-.5.5.5v9l1.5,1.5,1-1,1,1h3l1-1,1,1h1l1.5-1.5v-1l.5-.5h2l.5-.5v-3l.5-.5.5.5v5l1.5,1.5h17.7c-.1-.7-.1-1.3,0-2h-14.7l-.5-.5v-7l-.5-.5h-6l-1.5,1.5v2l-.5.5h-1l-2,2-.5-.5v-9l.5-.5h1l2.5-2.5v-1l.5-.5h2l.5-.5v-3l.5-.5h2l2.5-2.5v-1l.5-.5h10l.5-.5v-17l-.5-.5h-3l-.5-.5.5-.5h4l.5.5v3l.5.5h2l1.5-1.5-1-1v-4l-.5-.5h-8l-.5-.5.5-.5h1l.5-.5v-2l-1.5-1.5h-4l-1,1h-1l-.5-.5v-2l-1.5-1.5h-2l-.5-.5v-14l-1-1v-8l.5-.5.5.5v3l.5.5h1l1,1h3l1.5-1.5v-3l.5-.5h3l.5.5v18l1.5,1.5h9l1-1h3l.5-.5v-17l-.5-.5h-2l-.5-.5.5-.5h10l.5-.5v-6l.5-.5h2l1.5-1.5ZM107.5,58.5h4l.5.5-.5.5h-4l-.5-.5.5-.5ZM113.5,19.5h1l.5.5-.5.5h-1l-.5-.5.5-.5ZM89,89l-.5.5h-1l-2,2-2-2h-2l-.5-.5v-13l.5-.5,1,1h2l.5.5v4l1.5,1.5h2l.5.5v6Z"/>
  </g>
  <g id="_图层_2" data-name="图层_2">
    <g id="search-icon">
      <rect x="98.9" y="97.9" width="33.6" height="7.1"/>
      <rect x="91.7" y="105" width="7.1" height="34.7"/>
      <rect x="132.4" y="105" width="7.1" height="34.7"/>
      <rect x="98.9" y="139.7" width="33.6" height="7.1"/>
      <rect x="133.7" y="140.8" width="7.1" height="7.1"/>
      <rect x="140.9" y="147.9" width="7.1" height="7.1"/>
      <rect x="148" y="155" width="7.1" height="7.1"/>
    </g>
  </g>
</svg>